<svg width="142" height="49" viewBox="0 0 142 49" fill="none" xmlns="http://www.w3.org/2000/svg">
  <path d="M142 14.4882H0V33.0658H142V14.4882Z" fill="#B2C541"/>
  <path
    d="M13.5924 26.5617C12.7356 27.6133 11.4504 28.1975 10.0872 28.1975C7.90621 28.1975 5.5694 26.4449 5.5694 23.8354C5.5694 21.226 7.90621 19.4734 10.0872 19.4734C11.0219 19.4734 11.8009 19.6292 12.424 19.9018L12.6577 21.0313H14.5272V18.6555L14.4103 18.5776C13.0472 17.7208 11.6451 17.3313 10.0872 17.3313C6.50412 17.3313 3.46627 20.2913 3.46627 23.8354C3.46627 27.3406 6.50412 30.3396 10.0872 30.3396C11.9956 30.3396 13.8261 29.5217 15.1114 28.0806L15.2282 27.9248L13.7093 26.4059L13.5924 26.5617Z"
    fill="black"/>
  <path d="M27.2238 17.3703H16.3187V19.3176H20.6808V30.2227H22.8228V19.3176H27.2238V17.3703Z" fill="black"/>
  <path
    d="M30.729 17.3703L26.8733 30.2227H29.0154L30.028 26.8343H35.7921L36.8047 30.2227H38.9468L35.0911 17.3703H30.729ZM33.5332 19.3176L35.2079 24.887H30.6122L32.2869 19.3176H33.5332Z"
    fill="black"/>
  <path
    d="M56.5508 27.6522L55.2655 24.848C54.9929 24.2638 54.6034 23.7575 54.214 23.4849C54.5645 23.2123 54.7982 22.7449 54.915 22.4723L56.0445 19.9797C56.1613 19.7071 56.356 19.5123 56.5118 19.5123H57.2129V17.6429L56.5508 17.4092H56.4729C55.4603 17.4092 54.6034 17.9934 54.1361 19.045L52.695 22.1218C52.5782 22.4723 52.2277 22.5891 52.0329 22.5891H50.1635V17.3703H48.0604V22.5502H46.1909C45.9962 22.5502 45.6846 22.4333 45.5288 22.0828L44.0878 19.006C43.6204 17.9545 42.7636 17.3703 41.751 17.3703L41.0499 17.6039V19.4734H41.751C41.9068 19.4734 42.1015 19.6681 42.2183 19.9407L43.3478 22.4333C43.4646 22.7449 43.7373 23.1733 44.0488 23.446C43.6594 23.7186 43.2699 24.2249 42.9973 24.8091L41.712 27.6133C41.5952 27.808 41.4005 28.1585 41.2057 28.1585H40.31V30.0669L41.2057 30.3006C42.2183 30.3006 43.1141 29.6774 43.5815 28.6648L45.1783 25.2375C45.2951 24.887 45.6846 24.6923 45.8793 24.6923H47.9825V30.2227H50.0856V24.6923H52.1887C52.3835 24.6923 52.734 24.887 52.8898 25.2375L54.4866 28.6648C54.9539 29.6774 55.8497 30.3006 56.9402 30.3006L57.7581 30.1059V28.1975H56.8623C56.9013 28.1585 56.7066 27.9638 56.5508 27.6522Z"
    fill="black"/>
  <path
    d="M62.5486 28.3922H62.5096V17.3703H60.4065V30.2227H63.9117L69.0916 19.2397H69.1306V30.2227H71.2337V17.3703H67.6896L62.5486 28.3922Z"
    fill="black"/>
  <path
    d="M79.4515 17.3703H73.6874V30.2227H75.7905V26.4059H79.4515C81.9441 26.4059 83.9693 24.3807 83.9693 21.8881C83.9693 19.3955 81.9441 17.3703 79.4515 17.3703ZM79.4515 24.4196H75.7905V19.4344H79.4515C80.7367 19.4344 81.8662 20.6028 81.8662 21.927C81.8662 23.2123 80.6978 24.4196 79.4515 24.4196Z"
    fill="black"/>
  <path
    d="M92.6155 17.3313C89.0324 17.3313 85.9946 20.2913 85.9946 23.7965C85.9946 27.3017 89.0324 30.3006 92.6155 30.3006C96.2376 30.3006 99.2754 27.3406 99.2754 23.7965C99.2754 20.2913 96.1986 17.3313 92.6155 17.3313ZM92.6155 28.1585C90.4345 28.1585 88.0977 26.4059 88.0977 23.7965C88.0977 21.6934 89.9282 19.4344 92.6155 19.4344C94.7965 19.4344 97.1723 21.187 97.1723 23.7965C97.1333 25.8996 95.3418 28.1585 92.6155 28.1585Z"
    fill="black"/>
  <path
    d="M110.064 23.446C110.687 22.9007 111.154 21.8881 111.154 20.9534C111.154 18.9281 109.596 17.3703 107.571 17.3703H101.417V30.2227H107.922C109.986 30.2227 111.699 28.548 111.699 26.4449C111.66 25.3154 110.959 24.0302 110.064 23.446ZM103.521 24.6144H107.883C108.817 24.6144 109.518 25.588 109.518 26.4838C109.518 27.4575 108.739 28.3143 107.883 28.3143H103.521V24.6144ZM107.571 22.667H103.521V19.3176H107.571C108.35 19.3176 109.051 20.0965 109.051 20.9534C109.051 21.7323 108.428 22.667 107.571 22.667Z"
    fill="black"/>
  <path
    d="M123.695 27.6522L122.137 24.2249C122.02 23.9523 121.787 23.6796 121.553 23.4849C121.67 23.3681 121.748 23.2512 121.826 23.1344L123.228 20.0576C123.383 19.7071 123.578 19.5123 123.734 19.5123H124.435V17.6429L123.773 17.4092H123.695C122.682 17.4092 121.787 18.0324 121.319 19.045L119.878 22.1218C119.761 22.4333 119.489 22.667 119.216 22.667H116.061V17.3703H113.958V30.2227H116.061V24.6144H119.528C119.839 24.6144 120.112 24.9259 120.229 25.2375L121.826 28.6648C122.293 29.6774 123.189 30.3006 124.24 30.3006L125.058 30.1059V28.1975H124.162C124.046 28.1585 123.851 27.9638 123.695 27.6522Z"
    fill="black"/>
  <path
    d="M134.678 17.3703L129.537 28.3922H129.498V17.3703H127.356V30.2227H130.9L136.041 19.2397H136.08V30.2227H138.222V17.3703H134.678Z"
    fill="black"/>
  <path
    d="M34.1953 35.5584H28.3922V48.4109H30.4954V44.5941H34.1564C36.6489 44.5941 38.6742 42.5689 38.6742 40.0763C38.7131 37.5837 36.6879 35.5584 34.1953 35.5584ZM34.1953 42.5688H30.5343V37.5837H34.1953C35.4805 37.5837 36.61 38.7521 36.61 40.0763C36.61 41.4004 35.4416 42.5688 34.1953 42.5688Z"
    fill="black"/>
  <path
    d="M47.3204 35.5195C43.7373 35.5195 40.6994 38.4794 40.6994 41.9846C40.6994 45.4899 43.7373 48.4888 47.3204 48.4888C50.9424 48.4888 53.9803 45.5288 53.9803 41.9846C53.9803 38.4794 50.9424 35.5195 47.3204 35.5195ZM47.3204 46.3467C45.1393 46.3467 42.8025 44.5941 42.8025 41.9846C42.8025 39.8815 44.633 37.6226 47.3204 37.6226C49.5014 37.6226 51.8771 39.3752 51.8771 41.9846C51.8771 44.0878 50.0466 46.3467 47.3204 46.3467Z"
    fill="black"/>
  <path
    d="M66.1706 44.7109C65.3138 45.7625 64.0285 46.3467 62.6654 46.3467C60.4844 46.3467 58.1476 44.5941 58.1476 41.9846C58.1476 39.3752 60.4844 37.6226 62.6654 37.6226C63.6001 37.6226 64.3791 37.7784 65.0022 38.051L65.2359 39.1805H67.1053V36.8047L66.9885 36.7268C65.6254 35.87 64.2233 35.4805 62.6654 35.4805C59.0823 35.4805 56.0444 38.4405 56.0444 41.9846C56.0444 45.5288 59.0823 48.4888 62.6654 48.4888C64.5738 48.4888 66.4043 47.6709 67.6895 46.2298L67.8064 46.0741L66.2875 44.5551L66.1706 44.7109Z"
    fill="black"/>
  <path
    d="M73.181 35.5584L69.3253 48.4109H71.4674L72.48 45.0225H78.2441L79.2567 48.4109H81.3988L77.5431 35.5584H73.181ZM75.9852 37.5058L77.6599 43.0752H73.0642L74.7389 37.5058H75.9852Z"
    fill="black"/>
  <path d="M81.9051 37.5058H86.3061V48.4109H88.4092V37.5058H92.8102V35.5584H81.9051V37.5058Z" fill="black"/>
  <path
    d="M100.794 35.5195C97.2112 35.5195 94.1734 38.4794 94.1734 41.9846C94.1734 45.4899 97.2112 48.4888 100.794 48.4888C104.416 48.4888 107.454 45.5288 107.454 41.9846C107.415 38.4794 104.377 35.5195 100.794 35.5195ZM100.794 46.3467C98.6133 46.3467 96.2765 44.5941 96.2765 41.9846C96.2765 39.8815 98.107 37.6226 100.794 37.6226C102.975 37.6226 105.351 39.3752 105.351 41.9846C105.312 44.0878 103.482 46.3467 100.794 46.3467Z"
    fill="black"/>
  <path
    d="M115.906 41.8678L112.985 35.5584H109.596V48.4109H111.699V37.8563L114.504 43.8541H117.347L120.112 37.8173V48.4109H122.254V35.5584H118.827L115.906 41.8678Z"
    fill="black"/>
  <path
    d="M133.159 35.5584H128.797L124.941 48.4109H127.083L128.096 45.0225H133.86L134.873 48.4109H137.015L133.159 35.5584ZM131.64 37.5058L133.315 43.0752H128.719L130.394 37.5058H131.64Z"
    fill="black"/>
  <path d="M25.7049 0V1.94734H30.1059V12.8524H32.209V1.94734H36.61V0H25.7049Z" fill="black"/>
  <path d="M22.8228 0.11684H20.7197V12.8135H22.8228V0.11684Z" fill="black"/>
</svg>
