<svg width="142" height="50" viewBox="0 0 142 50" fill="none" xmlns="http://www.w3.org/2000/svg">
<path d="M29.0775 28.5317C27.1401 30.6776 23.8354 30.8399 21.6956 28.9009C19.5566 26.9558 19.392 23.6387 21.3264 21.4935C23.2622 19.3491 26.5669 19.1869 28.709 21.1297C30.8496 23.0717 31.0141 26.3865 29.0775 28.5317Z" fill="#373535"/>
<path d="M13.0945 25.195C13.0945 25.195 16.0067 23.7133 17.6923 17.1225C19.3779 10.5332 25.662 7.46796 25.662 7.46796C25.662 7.46796 12.1752 -5.91768 1.95752 15.0793C1.95752 15.0793 10.2857 16.7139 13.0945 25.195Z" fill="#373535"/>
<path d="M14.3214 2.30785C14.3214 2.30785 24.7175 0.263854 30.8719 13.2911C30.8719 13.2911 38.0514 15.617 44.3588 8.94814C44.3588 8.94814 33.8105 -5.48267 14.3214 2.30785Z" fill="#373535"/>
<path d="M31.2802 35.0646C31.2802 35.0646 28.541 33.2825 21.9911 35.121C15.4412 36.9587 9.64368 33.05 9.64368 33.05C9.64368 33.05 4.80096 51.4235 28.093 49.7673C28.093 49.7673 25.3414 41.7404 31.2802 35.0646Z" fill="#373535"/>
<path d="M10.8494 45.4524C10.8494 45.4524 3.88 37.4726 12.0792 25.625C12.0792 25.625 10.5018 18.2462 1.57258 16.1187C1.57258 16.1187 -5.6463 32.4731 10.8494 45.4524Z" fill="#373535"/>
<path d="M30.7647 14.4594C30.7647 14.4594 30.5932 17.724 35.4598 22.4755C40.3265 27.2279 39.8421 34.2026 39.8421 34.2026C39.8421 34.2026 58.1748 29.2062 45.0912 9.86546C45.0912 9.86546 39.5162 16.264 30.7647 14.4594Z" fill="#373535"/>
<path d="M49.9794 26.9573C49.9794 26.9573 46.5558 36.9826 32.1952 35.8084C32.1952 35.8084 26.5955 40.8628 29.2189 49.6614C29.2189 49.6614 46.9914 47.7333 49.9794 26.9573Z" fill="#373535"/>
<path d="M28.8971 28.5317C26.9597 30.6776 23.655 30.8399 21.5145 28.9009C19.3754 26.9558 19.2109 23.6387 21.146 21.4935C23.0811 19.3491 26.3865 19.1869 28.5286 21.1297C30.6684 23.0717 30.833 26.3865 28.8971 28.5317Z" fill="#373535"/>
<path d="M61.1567 25.2335H62.5781C64.1385 25.2335 65.0748 24.6263 65.0748 23.3432C65.0748 21.9913 64.1903 21.4722 62.5958 21.4722H61.1567V25.2335ZM61.2085 31.3183H58.6083V19.1826H62.7859C65.8372 19.1826 67.7615 20.4487 67.7615 23.2389C67.7615 25.9789 65.7854 27.5216 62.5433 27.5216H61.2085V31.3183Z" fill="#373535"/>
<path d="M78.638 25.2501C78.638 22.4946 77.3727 21.264 75.4832 21.264C73.7659 21.264 72.4141 22.5464 72.4141 25.2501C72.4141 27.9545 73.8192 29.2376 75.6384 29.2376C77.4066 29.2376 78.638 27.9715 78.638 25.2501ZM69.6578 25.2501C69.6578 21.1775 72.1367 18.9744 75.4832 18.9744C79.2274 18.9744 81.395 21.3506 81.395 25.2501C81.395 29.5675 78.8805 31.5265 75.5519 31.5265C72.0332 31.5265 69.6578 29.3234 69.6578 25.2501Z" fill="#373535"/>
<path d="M92.9652 30.8325C92.3402 31.1623 91.4565 31.5262 89.6875 31.5262C85.9788 31.5262 83.5347 29.3949 83.5347 25.4065C83.5347 21.2282 85.9788 18.9741 89.9478 18.9741C91.2665 18.9741 92.358 19.2522 92.9992 19.5472L92.4275 21.7318C91.6998 21.4877 90.8671 21.3672 90.3125 21.3672C87.9201 21.3672 86.2901 22.563 86.2901 25.2497C86.2901 27.8167 87.8505 29.1168 90.2947 29.1168C90.8493 29.1168 91.6998 28.96 92.4445 28.6479L92.9652 30.8325Z" fill="#373535"/>
<path d="M97.8072 26.6554H101.986L99.957 20.9514H99.8883L97.8072 26.6554ZM102.489 28.0761H97.3051L96.1262 31.3182H94.5488L99.1768 19.1824H100.737L105.279 31.3182H103.65L102.489 28.0761Z" fill="#373535"/>
<path d="M110.695 31.3184H109.135V20.6387H105.546V19.1826H114.284V20.6387H110.695V31.3184Z" fill="#373535"/>
<path d="M125.264 25.2501C125.264 21.9214 123.773 20.4661 121.38 20.4661C119.248 20.4661 117.601 22.0087 117.601 25.2501C117.601 28.4404 119.195 30.0349 121.588 30.0349C123.86 30.0349 125.264 28.3879 125.264 25.2501ZM115.935 25.2501C115.935 21.3676 118.172 19.0099 121.38 19.0099C124.986 19.0099 126.927 21.5746 126.927 25.2501C126.927 29.3767 124.605 31.4918 121.433 31.4918C118.07 31.4918 115.935 29.0986 115.935 25.2501Z" fill="#373535"/>
<path d="M142 31.3184H140.44L139.695 21.8353L136.625 31.3184H134.996L131.944 21.8693L131.181 31.3184H129.623L130.661 19.1826H132.569L135.845 29.6189L139.053 19.1826H140.961L142 31.3184Z" fill="#373535"/>
</svg>
